<svg width="188" height="14" viewBox="0 0 188 14" fill="none" xmlns="http://www.w3.org/2000/svg">
<path d="M181.184 9.25597C181.152 9.54397 181.157 9.82131 181.2 10.088C181.338 10.888 181.722 11.3893 182.352 11.592C183.237 11.8586 184.453 11.5333 186 10.616C186.192 10.4986 186.394 10.472 186.608 10.536C186.821 10.5893 186.986 10.712 187.104 10.904C187.221 11.0853 187.248 11.2826 187.184 11.496C187.13 11.7093 187.013 11.8746 186.832 11.992C184.869 13.1546 183.216 13.528 181.872 13.112C181.232 12.92 180.725 12.5733 180.352 12.072C179.978 11.5706 179.738 10.9946 179.632 10.344C179.536 9.75731 179.552 9.14397 179.68 8.50397C179.818 7.86397 180.048 7.26131 180.368 6.69597C180.698 6.13064 181.152 5.64531 181.728 5.23997C182.314 4.83464 182.97 4.58931 183.696 4.50397C185.157 4.32264 186.186 4.50397 186.784 5.04797C187.04 5.27197 187.2 5.53864 187.264 5.84797C187.328 6.14664 187.317 6.42397 187.232 6.67997C187.157 6.93597 187.04 7.17597 186.88 7.39997C186.4 8.08264 185.648 8.62131 184.624 9.01597C183.61 9.41064 182.533 9.51197 181.392 9.31997C181.317 9.30931 181.248 9.28797 181.184 9.25597ZM185.696 6.21597C185.44 6.01331 184.837 5.97064 183.888 6.08797C183.397 6.14131 182.954 6.31731 182.56 6.61597C182.176 6.91464 181.866 7.28797 181.632 7.73597C181.632 7.74664 181.637 7.75197 181.648 7.75197C182.501 7.89064 183.296 7.81597 184.032 7.52797C184.768 7.23997 185.28 6.89331 185.568 6.48797C185.653 6.37064 185.696 6.27997 185.696 6.21597Z" fill="black"/>
<path d="M173.585 7.28798C173.371 7.26665 173.195 7.17065 173.057 6.99998C172.918 6.81865 172.859 6.62131 172.881 6.40798C172.902 6.18398 172.998 6.00265 173.169 5.86398C173.339 5.72532 173.537 5.66665 173.761 5.68798C174.198 5.74132 174.667 5.77865 175.169 5.79998C175.35 4.06131 175.446 2.96798 175.457 2.51998C175.467 2.29598 175.553 2.10931 175.713 1.95998C175.873 1.81065 176.059 1.74132 176.273 1.75198C176.497 1.75198 176.683 1.83198 176.833 1.99198C176.993 2.15198 177.067 2.34398 177.057 2.56798C177.046 3.01598 176.95 4.10398 176.769 5.83198C176.79 5.83198 177.078 5.83198 177.633 5.83198C178.198 5.83198 178.497 5.83198 178.529 5.83198C178.753 5.83198 178.939 5.91198 179.089 6.07198C179.249 6.22132 179.329 6.40798 179.329 6.63198C179.329 6.85598 179.249 7.04798 179.089 7.20798C178.939 7.35732 178.753 7.43198 178.529 7.43198C177.302 7.43198 176.657 7.43198 176.593 7.43198C176.561 7.76265 176.534 8.05598 176.513 8.31198C176.374 9.63465 176.289 10.6266 176.257 11.288C176.235 11.6826 176.23 11.976 176.241 12.168C176.241 12.1893 176.241 12.2053 176.241 12.216C176.347 12.408 176.369 12.6106 176.305 12.824C176.241 13.0373 176.113 13.1973 175.921 13.304C175.729 13.4107 175.526 13.432 175.313 13.368C175.089 13.2933 174.918 13.1546 174.801 12.952C174.758 12.8666 174.721 12.7706 174.689 12.664C174.667 12.5573 174.651 12.4186 174.641 12.248C174.63 11.992 174.635 11.64 174.657 11.192C174.699 10.5093 174.785 9.49598 174.913 8.15198C174.934 7.92798 174.961 7.67198 174.993 7.38398C174.502 7.36265 174.033 7.33065 173.585 7.28798Z" fill="black"/>
<path d="M167.244 5.096C167.319 4.89333 167.458 4.74933 167.66 4.664C167.863 4.568 168.066 4.55733 168.268 4.632C168.482 4.70666 168.631 4.84533 168.716 5.048C168.812 5.25066 168.823 5.45866 168.748 5.672C168.3 6.84533 168.034 7.928 167.948 8.92C167.842 10.1573 168.05 10.9627 168.572 11.336C168.647 11.3893 168.743 11.3787 168.86 11.304C169.116 11.1227 169.399 10.7813 169.708 10.28C169.986 9.832 170.231 9.34133 170.444 8.808C170.668 8.264 170.823 7.83733 170.908 7.528C170.919 7.48533 170.956 7.26666 171.02 6.872C171.042 6.75466 171.074 6.57333 171.116 6.328C171.17 6.072 171.207 5.89066 171.228 5.784C171.26 5.592 171.282 5.448 171.292 5.352C171.303 5.29866 171.314 5.25066 171.324 5.208C171.335 5.18666 171.34 5.16533 171.34 5.144C171.362 5.06933 171.399 4.98933 171.452 4.904C171.538 4.744 171.682 4.632 171.884 4.568C172.119 4.49333 172.338 4.52 172.54 4.648C172.668 4.72266 172.764 4.824 172.828 4.952C172.86 5.00533 172.882 5.064 172.892 5.128C172.914 5.18133 172.924 5.224 172.924 5.256V5.304C172.924 5.336 172.924 5.37333 172.924 5.416C172.924 5.45866 172.919 5.51733 172.908 5.592C172.887 5.72 172.86 5.928 172.828 6.216C172.786 6.51466 172.695 6.99466 172.556 7.656C172.428 8.25333 172.343 8.712 172.3 9.032C172.183 9.97066 172.252 10.7333 172.508 11.32C172.7 11.416 172.844 11.496 172.94 11.56C173.122 11.688 173.228 11.864 173.26 12.088C173.303 12.3013 173.26 12.4987 173.132 12.68C173.004 12.8613 172.828 12.968 172.604 13C172.391 13.0427 172.194 13 172.012 12.872C171.991 12.8613 171.975 12.856 171.964 12.856C171.954 12.8453 171.927 12.8293 171.884 12.808C171.842 12.7867 171.788 12.7547 171.724 12.712C171.426 12.552 171.218 12.3493 171.1 12.104C171.004 11.9013 170.924 11.688 170.86 11.464C170.498 11.9867 170.13 12.376 169.756 12.632C169.02 13.1227 168.316 13.128 167.644 12.648C166.62 11.9227 166.188 10.632 166.348 8.776C166.455 7.64533 166.754 6.41866 167.244 5.096Z" fill="black"/>
<path d="M160.435 5.20799C160.467 4.99465 160.574 4.82398 160.755 4.69598C160.937 4.55732 161.134 4.50932 161.347 4.55199C161.561 4.58398 161.731 4.69065 161.859 4.87198C161.998 5.05332 162.046 5.25065 162.003 5.46398C161.993 5.52798 161.987 5.58665 161.987 5.63998C162.627 4.97865 163.331 4.63198 164.099 4.59998C164.899 4.56798 165.465 5.05332 165.795 6.05598C165.987 6.63198 166.099 7.41065 166.131 8.39199C166.163 9.20265 166.121 10.4613 166.003 12.168C165.982 12.392 165.886 12.5787 165.715 12.728C165.555 12.8667 165.363 12.9307 165.139 12.92C164.926 12.8987 164.745 12.808 164.595 12.648C164.457 12.4773 164.393 12.2853 164.403 12.072C164.521 10.4187 164.563 9.21332 164.531 8.45598C164.499 7.62398 164.414 6.98932 164.275 6.55199C164.211 6.38132 164.153 6.26398 164.099 6.19998C163.523 6.25332 162.947 6.79732 162.371 7.83198C161.913 8.64265 161.529 9.63998 161.219 10.824C161.209 10.888 161.171 11.1013 161.107 11.464C161.043 11.8053 160.963 12.088 160.867 12.312C160.846 12.3547 160.825 12.3973 160.803 12.44C160.782 12.4933 160.75 12.536 160.707 12.568C160.611 12.6853 160.489 12.7707 160.339 12.824C160.019 12.92 159.747 12.8453 159.523 12.6C159.427 12.504 159.363 12.392 159.331 12.264C159.31 12.1893 159.299 12.1147 159.299 12.04C159.299 11.9547 159.31 11.8373 159.331 11.688C159.342 11.56 159.374 11.3573 159.427 11.08C159.47 10.8133 159.539 10.44 159.635 9.95999C159.742 9.46932 159.811 9.13332 159.843 8.95198C159.929 8.47199 160.035 7.78932 160.163 6.90398C160.302 6.01865 160.393 5.45332 160.435 5.20799Z" fill="black"/>
<path d="M157.43 5.44802C157.462 5.23469 157.563 5.06402 157.734 4.93602C157.915 4.79736 158.113 4.74402 158.326 4.77602C158.55 4.79736 158.726 4.89869 158.854 5.08002C158.993 5.25069 159.051 5.44802 159.03 5.67202C158.913 6.49335 158.763 7.66135 158.582 9.17602C158.401 10.6907 158.278 11.7147 158.214 12.248C158.182 12.472 158.075 12.6534 157.894 12.792C157.723 12.92 157.526 12.9734 157.302 12.952C157.089 12.92 156.913 12.8187 156.774 12.648C156.646 12.4667 156.593 12.2694 156.614 12.056C156.689 11.512 156.817 10.4827 156.998 8.96802C157.179 7.44269 157.323 6.26936 157.43 5.44802ZM158.934 2.42402C159.094 2.57336 159.174 2.76002 159.174 2.98402C159.174 3.20802 159.094 3.40002 158.934 3.56002C158.785 3.70935 158.598 3.78402 158.374 3.78402C158.15 3.78402 157.958 3.70935 157.798 3.56002C157.649 3.40002 157.574 3.20802 157.574 2.98402C157.574 2.76002 157.649 2.57336 157.798 2.42402C157.958 2.26402 158.15 2.18402 158.374 2.18402C158.598 2.18402 158.785 2.26402 158.934 2.42402Z" fill="black"/>
<path d="M146.084 5.20799C146.126 4.99466 146.238 4.82933 146.42 4.71199C146.601 4.58399 146.804 4.54133 147.028 4.58399C147.284 4.63733 147.47 4.78133 147.588 5.01599C147.62 4.98399 147.657 4.95199 147.7 4.91999C148.436 4.29066 149.177 4.14133 149.924 4.47199C150.414 4.69599 150.777 5.14399 151.012 5.81599C151.118 6.15733 151.198 6.56799 151.252 7.04799C151.454 6.72799 151.652 6.43466 151.844 6.16799C152.356 5.47466 152.868 4.97866 153.38 4.67999C154.158 4.23199 154.884 4.23199 155.556 4.67999C156.025 4.97866 156.297 5.57066 156.372 6.45599C156.425 7.02133 156.404 7.73066 156.308 8.58399C156.201 9.66133 156.004 10.856 155.716 12.168C155.662 12.3813 155.54 12.5467 155.348 12.664C155.166 12.7813 154.969 12.8187 154.756 12.776C154.542 12.7227 154.377 12.6053 154.26 12.424C154.142 12.232 154.105 12.0293 154.148 11.816C154.425 10.568 154.617 9.43733 154.724 8.42399C154.798 7.66666 154.814 7.05866 154.772 6.59999C154.772 6.51466 154.761 6.43466 154.74 6.35999C154.729 6.28533 154.718 6.23199 154.708 6.19999C154.697 6.15733 154.686 6.11999 154.676 6.08799C154.676 6.05599 154.676 6.03466 154.676 6.02399L154.66 6.00799C154.532 5.93332 154.372 5.95466 154.18 6.07199C153.86 6.25333 153.513 6.59999 153.14 7.11199C152.809 7.55999 152.5 8.05599 152.212 8.59999C151.934 9.13333 151.737 9.56533 151.62 9.89599C151.449 10.3547 151.342 10.6587 151.3 10.808C151.321 10.904 151.326 11.0107 151.316 11.128C151.305 11.352 151.246 11.6933 151.14 12.152C151.118 12.216 151.102 12.2587 151.092 12.28C151.092 12.3013 151.086 12.3227 151.076 12.344C151.065 12.3867 151.049 12.424 151.028 12.456C150.932 12.616 150.793 12.728 150.612 12.792C150.345 12.8987 150.094 12.8667 149.86 12.696C149.742 12.6 149.652 12.4827 149.588 12.344C149.566 12.2693 149.55 12.1893 149.54 12.104C149.54 12.072 149.54 12.04 149.54 12.008C149.54 11.976 149.54 11.944 149.54 11.912C149.572 11.7413 149.588 11.6453 149.588 11.624C149.641 11.1867 149.673 10.7173 149.684 10.216C149.684 10.1947 149.689 9.96533 149.7 9.52799C149.721 9.09066 149.732 8.78666 149.732 8.61599C149.732 8.44532 149.721 8.09866 149.7 7.57599C149.668 7.05333 149.598 6.63732 149.492 6.32799C149.46 6.22132 149.422 6.13599 149.38 6.07199C149.348 6.00799 149.321 5.97066 149.3 5.95999L149.284 5.94399C149.145 5.87999 148.964 5.94399 148.74 6.13599C148.42 6.41333 148.084 6.88266 147.732 7.54399C147.412 8.14133 147.129 8.80799 146.884 9.54399C146.884 9.59733 146.878 9.69333 146.868 9.83199C146.857 9.95999 146.846 10.072 146.836 10.168C146.793 10.584 146.697 11.1227 146.548 11.784C146.505 11.9333 146.468 12.0507 146.436 12.136C146.414 12.2 146.388 12.2587 146.356 12.312C146.292 12.3973 146.217 12.4667 146.132 12.52C145.897 12.68 145.646 12.7067 145.38 12.6C145.188 12.5253 145.049 12.3973 144.964 12.216C144.932 12.152 144.905 12.088 144.884 12.024C144.873 11.9707 144.868 11.912 144.868 11.848C144.868 11.6773 144.905 11.2453 144.98 10.552C145.022 10.2213 145.134 9.77333 145.316 9.20799C145.348 8.94133 145.422 8.51466 145.54 7.92799C145.657 7.37333 145.838 6.46666 146.084 5.20799Z" fill="black"/>
<path d="M136.106 13L138.106 3.67969H138.067L134.7 5.74219L135.091 3.82031L138.512 1.72656H140.255L137.856 13H136.106Z" fill="black"/>
<path d="M122.513 5.20799C122.545 4.99465 122.652 4.82398 122.833 4.69598C123.015 4.55732 123.212 4.50932 123.425 4.55199C123.639 4.58398 123.809 4.69065 123.937 4.87198C124.076 5.05332 124.124 5.25065 124.081 5.46398C124.071 5.52798 124.065 5.58665 124.065 5.63998C124.705 4.97865 125.409 4.63198 126.177 4.59998C126.977 4.56798 127.543 5.05332 127.873 6.05598C128.065 6.63198 128.177 7.41065 128.209 8.39199C128.241 9.20265 128.199 10.4613 128.081 12.168C128.06 12.392 127.964 12.5787 127.793 12.728C127.633 12.8667 127.441 12.9307 127.217 12.92C127.004 12.8987 126.823 12.808 126.673 12.648C126.535 12.4773 126.471 12.2853 126.481 12.072C126.599 10.4187 126.641 9.21332 126.609 8.45598C126.577 7.62398 126.492 6.98932 126.353 6.55199C126.289 6.38132 126.231 6.26398 126.177 6.19998C125.601 6.25332 125.025 6.79732 124.449 7.83198C123.991 8.64265 123.607 9.63998 123.297 10.824C123.287 10.888 123.249 11.1013 123.185 11.464C123.121 11.8053 123.041 12.088 122.945 12.312C122.924 12.3547 122.903 12.3973 122.881 12.44C122.86 12.4933 122.828 12.536 122.785 12.568C122.689 12.6853 122.567 12.7707 122.417 12.824C122.097 12.92 121.825 12.8453 121.601 12.6C121.505 12.504 121.441 12.392 121.409 12.264C121.388 12.1893 121.377 12.1147 121.377 12.04C121.377 11.9547 121.388 11.8373 121.409 11.688C121.42 11.56 121.452 11.3573 121.505 11.08C121.548 10.8133 121.617 10.44 121.713 9.95999C121.82 9.46932 121.889 9.13332 121.921 8.95198C122.007 8.47199 122.113 7.78932 122.241 6.90398C122.38 6.01865 122.471 5.45332 122.513 5.20799Z" fill="black"/>
<path d="M118.695 7.03201C118.695 7.01068 118.695 6.98934 118.695 6.96801C118.695 6.95734 118.695 6.90934 118.695 6.82401C118.695 6.73868 118.695 6.68001 118.695 6.64801C118.706 6.50934 118.727 6.38668 118.759 6.28001C118.663 6.13068 118.557 6.01868 118.439 5.94401C118.247 5.82668 117.991 5.80534 117.671 5.88001C117.287 5.97601 116.903 6.17868 116.519 6.48801C116.135 6.79734 115.842 7.14934 115.639 7.54401C115.298 8.17334 115.09 8.96801 115.015 9.92801C114.994 10.1307 114.989 10.4027 114.999 10.744C114.999 10.9253 115.005 11.0747 115.015 11.192C115.026 11.224 115.031 11.2507 115.031 11.272C115.17 11.4747 115.303 11.5653 115.431 11.544C115.677 11.512 115.991 11.3147 116.375 10.952C116.727 10.6213 117.063 10.2267 117.383 9.76801C117.714 9.29868 117.954 8.91468 118.103 8.61601C118.306 8.23201 118.503 7.70401 118.695 7.03201ZM120.535 6.53601C120.589 6.76001 120.551 6.96801 120.423 7.16001C120.413 7.20268 120.407 7.24534 120.407 7.28801C120.386 7.41601 120.317 7.81068 120.199 8.47201C120.018 9.49601 119.949 10.1733 119.991 10.504C120.066 10.9947 120.391 11.4693 120.967 11.928C121.138 12.0667 121.234 12.248 121.255 12.472C121.277 12.6853 121.218 12.8773 121.079 13.048C120.951 13.2187 120.775 13.3147 120.551 13.336C120.327 13.368 120.13 13.3147 119.959 13.176C119.149 12.5253 118.647 11.8 118.455 11C118.125 11.4373 117.799 11.8107 117.479 12.12C116.85 12.7173 116.242 13.0533 115.655 13.128C114.813 13.256 114.135 12.8933 113.623 12.04C113.527 11.88 113.463 11.656 113.431 11.368C113.41 11.208 113.399 11.0107 113.399 10.776C113.389 10.3813 113.394 10.056 113.415 9.80001C113.511 8.61601 113.783 7.60801 114.231 6.77601C114.541 6.20001 114.973 5.68801 115.527 5.24001C116.093 4.78134 116.679 4.47734 117.287 4.32801C118.034 4.14668 118.695 4.22668 119.271 4.56801C119.901 4.95201 120.322 5.60801 120.535 6.53601Z" fill="black"/>
<path d="M107.03 1.62402C107.073 1.41068 107.185 1.24002 107.366 1.11202C107.548 0.984018 107.745 0.941351 107.958 0.984018C108.182 1.01602 108.358 1.12268 108.486 1.30402C108.614 1.48535 108.657 1.68802 108.614 1.91202C108.412 3.06402 108.172 4.71202 107.894 6.85602C108.022 6.66402 108.15 6.49335 108.278 6.34402C108.737 5.76802 109.222 5.40002 109.734 5.24002C110.31 5.05868 110.849 5.13335 111.35 5.46402C112.14 5.96535 112.652 6.93602 112.886 8.37602C113.11 9.75202 113.02 11.1654 112.614 12.616C112.55 12.8294 112.422 12.9894 112.23 13.096C112.038 13.2027 111.836 13.224 111.622 13.16C111.409 13.096 111.249 12.968 111.142 12.776C111.036 12.584 111.014 12.3814 111.078 12.168C111.42 10.952 111.494 9.77335 111.302 8.63202C111.228 8.14135 111.11 7.74135 110.95 7.43202C110.801 7.11202 110.646 6.90402 110.486 6.80802C110.401 6.75468 110.31 6.73868 110.214 6.76002C110.012 6.83469 109.777 7.03202 109.51 7.35202C108.742 8.30135 108.028 9.99735 107.366 12.44C107.356 12.504 107.34 12.5627 107.318 12.616C107.286 12.68 107.254 12.7387 107.222 12.792C107.062 13.016 106.844 13.128 106.566 13.128C106.214 13.1387 105.964 12.984 105.814 12.664C105.782 12.5894 105.761 12.5147 105.75 12.44C105.74 12.3867 105.734 12.3227 105.734 12.248C105.734 12.0987 105.75 11.8374 105.782 11.464C105.836 10.7814 105.937 9.81602 106.086 8.56802C106.428 5.57068 106.742 3.25602 107.03 1.62402Z" fill="black"/>
<path d="M99.3035 7.28798C99.0901 7.26665 98.9141 7.17065 98.7755 6.99998C98.6368 6.81865 98.5781 6.62131 98.5995 6.40798C98.6208 6.18398 98.7168 6.00265 98.8875 5.86398C99.0581 5.72532 99.2555 5.66665 99.4795 5.68798C99.9168 5.74132 100.386 5.77865 100.887 5.79998C101.069 4.06131 101.165 2.96798 101.175 2.51998C101.186 2.29598 101.271 2.10931 101.431 1.95998C101.591 1.81065 101.778 1.74132 101.991 1.75198C102.215 1.75198 102.402 1.83198 102.551 1.99198C102.711 2.15198 102.786 2.34398 102.775 2.56798C102.765 3.01598 102.669 4.10398 102.487 5.83198C102.509 5.83198 102.797 5.83198 103.351 5.83198C103.917 5.83198 104.215 5.83198 104.247 5.83198C104.471 5.83198 104.658 5.91198 104.807 6.07198C104.967 6.22132 105.047 6.40798 105.047 6.63198C105.047 6.85598 104.967 7.04798 104.807 7.20798C104.658 7.35732 104.471 7.43198 104.247 7.43198C103.021 7.43198 102.375 7.43198 102.311 7.43198C102.279 7.76265 102.253 8.05598 102.231 8.31198C102.093 9.63465 102.007 10.6266 101.975 11.288C101.954 11.6826 101.949 11.976 101.959 12.168C101.959 12.1893 101.959 12.2053 101.959 12.216C102.066 12.408 102.087 12.6106 102.023 12.824C101.959 13.0373 101.831 13.1973 101.639 13.304C101.447 13.4107 101.245 13.432 101.031 13.368C100.807 13.2933 100.637 13.1546 100.519 12.952C100.477 12.8666 100.439 12.7706 100.407 12.664C100.386 12.5573 100.37 12.4186 100.359 12.248C100.349 11.992 100.354 11.64 100.375 11.192C100.418 10.5093 100.503 9.49598 100.631 8.15198C100.653 7.92798 100.679 7.67198 100.711 7.38398C100.221 7.36265 99.7515 7.33065 99.3035 7.28798Z" fill="black"/>
<path d="M93.9606 5.94398C94.1206 6.09331 94.2006 6.27998 94.2006 6.50398C94.2006 6.72798 94.1206 6.91998 93.9606 7.07998C93.8113 7.22931 93.6246 7.30398 93.4006 7.30398C93.1766 7.30398 92.9899 7.22397 92.8406 7.06397C92.6379 6.87197 92.3179 6.67464 91.8806 6.47198C91.4539 6.25864 91.0273 6.12531 90.6006 6.07197C90.1953 6.00798 89.8806 6.03464 89.6566 6.15197C89.4753 6.24797 89.3579 6.44531 89.3046 6.74397C89.2726 6.97864 89.4006 7.19731 89.6886 7.39998C89.9233 7.55998 90.4993 7.83198 91.4166 8.21598C92.3659 8.62131 93.0326 9.01064 93.4166 9.38398C94.1313 10.0666 94.3499 10.904 94.0726 11.896C93.8486 12.696 93.2939 13.2453 92.4086 13.544C91.6939 13.7786 90.9099 13.8053 90.0566 13.624C89.6619 13.5386 89.2779 13.4053 88.9046 13.224C88.5419 13.0426 88.2006 12.8133 87.8806 12.536C87.5606 12.2586 87.3046 11.9173 87.1126 11.512C86.9206 11.1066 86.8246 10.6693 86.8246 10.2C86.8246 9.97598 86.8993 9.78931 87.0486 9.63998C87.2086 9.47998 87.4006 9.39998 87.6246 9.39998C87.8486 9.39998 88.0353 9.47998 88.1846 9.63998C88.3446 9.78931 88.4246 9.97598 88.4246 10.2C88.4246 10.6266 88.6059 11.0106 88.9686 11.352C89.3313 11.6933 89.8059 11.928 90.3926 12.056C90.9579 12.184 91.4593 12.1733 91.8966 12.024C92.2486 11.9066 92.4619 11.7146 92.5366 11.448C92.6433 11.0853 92.5686 10.7813 92.3126 10.536C92.0673 10.3013 91.5606 10.0186 90.7926 9.68798C89.7686 9.26131 89.0966 8.93064 88.7766 8.69597C87.9446 8.11997 87.5979 7.39464 87.7366 6.51997C87.8539 5.67731 88.2486 5.07998 88.9206 4.72798C89.4433 4.46131 90.0779 4.38131 90.8246 4.48798C91.4113 4.56264 91.9979 4.74397 92.5846 5.03198C93.1713 5.30931 93.6299 5.61331 93.9606 5.94398Z" fill="black"/>
<path d="M86.7106 5.94398C86.8706 6.09331 86.9506 6.27998 86.9506 6.50398C86.9506 6.72798 86.8706 6.91998 86.7106 7.07998C86.5612 7.22931 86.3746 7.30398 86.1506 7.30398C85.9266 7.30398 85.7399 7.22397 85.5906 7.06397C85.3879 6.87197 85.0679 6.67464 84.6306 6.47198C84.2039 6.25864 83.7773 6.12531 83.3506 6.07197C82.9453 6.00798 82.6306 6.03464 82.4066 6.15197C82.2253 6.24797 82.1079 6.44531 82.0546 6.74397C82.0226 6.97864 82.1506 7.19731 82.4386 7.39998C82.6733 7.55998 83.2493 7.83198 84.1666 8.21598C85.1159 8.62131 85.7826 9.01064 86.1666 9.38398C86.8813 10.0666 87.0999 10.904 86.8226 11.896C86.5986 12.696 86.0439 13.2453 85.1586 13.544C84.4439 13.7786 83.6599 13.8053 82.8066 13.624C82.4119 13.5386 82.0279 13.4053 81.6546 13.224C81.2919 13.0426 80.9506 12.8133 80.6306 12.536C80.3106 12.2586 80.0546 11.9173 79.8626 11.512C79.6706 11.1066 79.5746 10.6693 79.5746 10.2C79.5746 9.97598 79.6493 9.78931 79.7986 9.63998C79.9586 9.47998 80.1506 9.39998 80.3746 9.39998C80.5986 9.39998 80.7853 9.47998 80.9346 9.63998C81.0946 9.78931 81.1746 9.97598 81.1746 10.2C81.1746 10.6266 81.3559 11.0106 81.7186 11.352C82.0812 11.6933 82.5559 11.928 83.1426 12.056C83.7079 12.184 84.2093 12.1733 84.6466 12.024C84.9986 11.9066 85.2119 11.7146 85.2866 11.448C85.3932 11.0853 85.3186 10.7813 85.0626 10.536C84.8173 10.3013 84.3106 10.0186 83.5426 9.68798C82.5186 9.26131 81.8466 8.93064 81.5266 8.69597C80.6946 8.11997 80.3479 7.39464 80.4866 6.51997C80.6039 5.67731 80.9986 5.07998 81.6706 4.72798C82.1933 4.46131 82.8279 4.38131 83.5746 4.48798C84.1613 4.56264 84.7479 4.74397 85.3346 5.03198C85.9213 5.30931 86.3799 5.61331 86.7106 5.94398Z" fill="black"/>
<path d="M73.5898 9.25597C73.5578 9.54397 73.5631 9.82131 73.6058 10.088C73.7445 10.888 74.1285 11.3893 74.7578 11.592C75.6431 11.8586 76.8591 11.5333 78.4058 10.616C78.5978 10.4986 78.8005 10.472 79.0138 10.536C79.2271 10.5893 79.3925 10.712 79.5098 10.904C79.6271 11.0853 79.6538 11.2826 79.5898 11.496C79.5365 11.7093 79.4191 11.8746 79.2378 11.992C77.2751 13.1546 75.6218 13.528 74.2778 13.112C73.6378 12.92 73.1311 12.5733 72.7578 12.072C72.3845 11.5706 72.1445 10.9946 72.0378 10.344C71.9418 9.75731 71.9578 9.14397 72.0858 8.50397C72.2245 7.86397 72.4538 7.26131 72.7738 6.69597C73.1045 6.13064 73.5578 5.64531 74.1338 5.23997C74.7205 4.83464 75.3765 4.58931 76.1018 4.50397C77.5631 4.32264 78.5925 4.50397 79.1898 5.04797C79.4458 5.27197 79.6058 5.53864 79.6698 5.84797C79.7338 6.14664 79.7231 6.42397 79.6378 6.67997C79.5631 6.93597 79.4458 7.17597 79.2858 7.39997C78.8058 8.08264 78.0538 8.62131 77.0298 9.01597C76.0165 9.41064 74.9391 9.51197 73.7978 9.31997C73.7231 9.30931 73.6538 9.28797 73.5898 9.25597ZM78.1018 6.21597C77.8458 6.01331 77.2431 5.97064 76.2938 6.08797C75.8031 6.14131 75.3605 6.31731 74.9658 6.61597C74.5818 6.91464 74.2725 7.28797 74.0378 7.73597C74.0378 7.74664 74.0431 7.75197 74.0538 7.75197C74.9071 7.89064 75.7018 7.81597 76.4378 7.52797C77.1738 7.23997 77.6858 6.89331 77.9738 6.48797C78.0591 6.37064 78.1018 6.27997 78.1018 6.21597Z" fill="black"/>
<path d="M70.1501 2.71201C70.1821 2.49868 70.2834 2.32801 70.4541 2.20001C70.6354 2.06135 70.8328 2.01335 71.0461 2.05601C71.2701 2.08801 71.4461 2.19468 71.5741 2.37601C71.7128 2.54668 71.7608 2.74401 71.7181 2.96801C71.5261 4.19468 71.2754 5.95468 70.9661 8.24801C70.6568 10.5307 70.4648 11.9173 70.3901 12.408C70.3688 12.632 70.2674 12.808 70.0861 12.936C69.9048 13.064 69.7021 13.112 69.4781 13.08C69.2648 13.0587 69.0941 12.9573 68.9661 12.776C68.8381 12.5947 68.7901 12.3973 68.8221 12.184C68.8861 11.6933 69.0728 10.3013 69.3821 8.00801C69.6914 5.70401 69.9474 3.93868 70.1501 2.71201Z" fill="black"/>
<path d="M63.3512 5.94398C63.5112 6.09331 63.5912 6.27998 63.5912 6.50398C63.5912 6.72798 63.5112 6.91998 63.3512 7.07998C63.2019 7.22931 63.0152 7.30398 62.7912 7.30398C62.5672 7.30398 62.3805 7.22397 62.2312 7.06397C62.0285 6.87197 61.7085 6.67464 61.2712 6.47198C60.8445 6.25864 60.4179 6.12531 59.9912 6.07197C59.5859 6.00798 59.2712 6.03464 59.0472 6.15197C58.8659 6.24797 58.7485 6.44531 58.6952 6.74397C58.6632 6.97864 58.7912 7.19731 59.0792 7.39998C59.3139 7.55998 59.8899 7.83198 60.8072 8.21598C61.7565 8.62131 62.4232 9.01064 62.8072 9.38398C63.5219 10.0666 63.7405 10.904 63.4632 11.896C63.2392 12.696 62.6845 13.2453 61.7992 13.544C61.0845 13.7786 60.3005 13.8053 59.4472 13.624C59.0525 13.5386 58.6685 13.4053 58.2952 13.224C57.9325 13.0426 57.5912 12.8133 57.2712 12.536C56.9512 12.2586 56.6952 11.9173 56.5032 11.512C56.3112 11.1066 56.2152 10.6693 56.2152 10.2C56.2152 9.97598 56.2899 9.78931 56.4392 9.63998C56.5992 9.47998 56.7912 9.39998 57.0152 9.39998C57.2392 9.39998 57.4259 9.47998 57.5752 9.63998C57.7352 9.78931 57.8152 9.97598 57.8152 10.2C57.8152 10.6266 57.9965 11.0106 58.3592 11.352C58.7219 11.6933 59.1965 11.928 59.7832 12.056C60.3485 12.184 60.8499 12.1733 61.2872 12.024C61.6392 11.9066 61.8525 11.7146 61.9272 11.448C62.0339 11.0853 61.9592 10.7813 61.7032 10.536C61.4579 10.3013 60.9512 10.0186 60.1832 9.68798C59.1592 9.26131 58.4872 8.93064 58.1672 8.69597C57.3352 8.11997 56.9885 7.39464 57.1272 6.51997C57.2445 5.67731 57.6392 5.07998 58.3112 4.72798C58.8339 4.46131 59.4685 4.38131 60.2152 4.48798C60.8019 4.56264 61.3885 4.74397 61.9752 5.03198C62.5619 5.30931 63.0205 5.61331 63.3512 5.94398Z" fill="black"/>
<path d="M50.2304 9.25597C50.1984 9.54397 50.2037 9.82131 50.2464 10.088C50.3851 10.888 50.7691 11.3893 51.3984 11.592C52.2837 11.8586 53.4997 11.5333 55.0464 10.616C55.2384 10.4986 55.4411 10.472 55.6544 10.536C55.8677 10.5893 56.0331 10.712 56.1504 10.904C56.2677 11.0853 56.2944 11.2826 56.2304 11.496C56.1771 11.7093 56.0597 11.8746 55.8784 11.992C53.9157 13.1546 52.2624 13.528 50.9184 13.112C50.2784 12.92 49.7717 12.5733 49.3984 12.072C49.0251 11.5706 48.7851 10.9946 48.6784 10.344C48.5824 9.75731 48.5984 9.14397 48.7264 8.50397C48.8651 7.86397 49.0944 7.26131 49.4144 6.69597C49.7451 6.13064 50.1984 5.64531 50.7744 5.23997C51.3611 4.83464 52.0171 4.58931 52.7424 4.50397C54.2038 4.32264 55.2331 4.50397 55.8304 5.04797C56.0864 5.27197 56.2464 5.53864 56.3104 5.84797C56.3744 6.14664 56.3637 6.42397 56.2784 6.67997C56.2037 6.93597 56.0864 7.17597 55.9264 7.39997C55.4464 8.08264 54.6944 8.62131 53.6704 9.01597C52.6571 9.41064 51.5798 9.51197 50.4384 9.31997C50.3638 9.30931 50.2944 9.28797 50.2304 9.25597ZM54.7424 6.21597C54.4864 6.01331 53.8837 5.97064 52.9344 6.08797C52.4437 6.14131 52.0011 6.31731 51.6064 6.61597C51.2224 6.91464 50.9131 7.28797 50.6784 7.73597C50.6784 7.74664 50.6837 7.75197 50.6944 7.75197C51.5477 7.89064 52.3424 7.81597 53.0784 7.52797C53.8144 7.23997 54.3264 6.89331 54.6144 6.48797C54.6997 6.37064 54.7424 6.27997 54.7424 6.21597Z" fill="black"/>
<path d="M46.4692 4.98397C46.6185 4.82397 46.8052 4.74397 47.0292 4.74397C47.2532 4.74397 47.4452 4.81864 47.6052 4.96797C47.7652 5.11731 47.8452 5.30397 47.8452 5.52797C47.8452 5.75197 47.7705 5.94397 47.6212 6.10397C46.9172 6.82931 46.2185 7.44797 45.5252 7.95997C46.1545 9.10131 47.0399 10.3333 48.1812 11.656C48.3199 11.8266 48.3785 12.024 48.3572 12.248C48.3465 12.4613 48.2559 12.6426 48.0852 12.792C47.9252 12.9306 47.7332 12.9946 47.5092 12.984C47.2959 12.9626 47.1145 12.872 46.9652 12.712C45.7919 11.3466 44.8745 10.072 44.2132 8.88797C43.9999 9.02664 43.8185 9.14931 43.6692 9.25597C43.6479 9.26664 43.6265 9.28264 43.6052 9.30397C43.4772 10.584 43.3812 11.608 43.3172 12.376C43.2959 12.6 43.1999 12.7813 43.0292 12.92C42.8692 13.0586 42.6772 13.1173 42.4532 13.096C42.2292 13.0853 42.0479 13 41.9092 12.84C41.7705 12.6693 41.7065 12.472 41.7172 12.248C41.7599 11.7573 41.8932 10.3493 42.1172 8.02397C42.3519 5.69864 42.4905 3.90664 42.5332 2.64797C42.5439 2.42397 42.6292 2.23731 42.7892 2.08797C42.9492 1.93864 43.1412 1.86931 43.3652 1.87997C43.5892 1.89064 43.7759 1.97597 43.9252 2.13597C44.0745 2.29597 44.1439 2.48797 44.1332 2.71197C44.0905 3.91731 43.9839 5.42131 43.8132 7.22397C44.3572 6.83997 44.8105 6.49864 45.1732 6.19997C45.5465 5.90131 45.9785 5.49597 46.4692 4.98397Z" fill="black"/>
<path d="M38.5392 7.03201C38.5392 7.01068 38.5392 6.98934 38.5392 6.96801C38.5392 6.95734 38.5392 6.90934 38.5392 6.82401C38.5392 6.73868 38.5392 6.68001 38.5392 6.64801C38.5499 6.50934 38.5712 6.38668 38.6032 6.28001C38.5072 6.13068 38.4005 6.01868 38.2832 5.94401C38.0912 5.82668 37.8352 5.80534 37.5152 5.88001C37.1312 5.97601 36.7472 6.17868 36.3632 6.48801C35.9792 6.79734 35.6859 7.14934 35.4832 7.54401C35.1419 8.17334 34.9339 8.96801 34.8592 9.92801C34.8379 10.1307 34.8325 10.4027 34.8432 10.744C34.8432 10.9253 34.8485 11.0747 34.8592 11.192C34.8699 11.224 34.8752 11.2507 34.8752 11.272C35.0139 11.4747 35.1472 11.5653 35.2752 11.544C35.5205 11.512 35.8352 11.3147 36.2192 10.952C36.5712 10.6213 36.9072 10.2267 37.2272 9.76801C37.5579 9.29868 37.7979 8.91468 37.9472 8.61601C38.1499 8.23201 38.3472 7.70401 38.5392 7.03201ZM40.3792 6.53601C40.4325 6.76001 40.3952 6.96801 40.2672 7.16001C40.2565 7.20268 40.2512 7.24534 40.2512 7.28801C40.2299 7.41601 40.1605 7.81068 40.0432 8.47201C39.8618 9.49601 39.7925 10.1733 39.8352 10.504C39.9099 10.9947 40.2352 11.4693 40.8112 11.928C40.9819 12.0667 41.0778 12.248 41.0992 12.472C41.1205 12.6853 41.0619 12.8773 40.9232 13.048C40.7952 13.2187 40.6192 13.3147 40.3952 13.336C40.1712 13.368 39.9739 13.3147 39.8032 13.176C38.9925 12.5253 38.4912 11.8 38.2992 11C37.9685 11.4373 37.6432 11.8107 37.3232 12.12C36.6939 12.7173 36.0859 13.0533 35.4992 13.128C34.6565 13.256 33.9792 12.8933 33.4672 12.04C33.3712 11.88 33.3072 11.656 33.2752 11.368C33.2539 11.208 33.2432 11.0107 33.2432 10.776C33.2325 10.3813 33.2379 10.056 33.2592 9.80001C33.3552 8.61601 33.6272 7.60801 34.0752 6.77601C34.3845 6.20001 34.8165 5.68801 35.3712 5.24001C35.9365 4.78134 36.5232 4.47734 37.1312 4.32801C37.8779 4.14668 38.5392 4.22668 39.1152 4.56801C39.7445 4.95201 40.1659 5.60801 40.3792 6.53601Z" fill="black"/>
<path d="M27.1004 7.28798C26.887 7.26665 26.711 7.17065 26.5724 6.99998C26.4337 6.81865 26.375 6.62131 26.3964 6.40798C26.4177 6.18398 26.5137 6.00265 26.6844 5.86398C26.855 5.72532 27.0524 5.66665 27.2764 5.68798C27.7137 5.74132 28.183 5.77865 28.6844 5.79998C28.8657 4.06131 28.9617 2.96798 28.9724 2.51998C28.983 2.29598 29.0684 2.10931 29.2284 1.95998C29.3884 1.81065 29.575 1.74132 29.7884 1.75198C30.0124 1.75198 30.199 1.83198 30.3484 1.99198C30.5084 2.15198 30.583 2.34398 30.5724 2.56798C30.5617 3.01598 30.4657 4.10398 30.2844 5.83198C30.3057 5.83198 30.5937 5.83198 31.1484 5.83198C31.7137 5.83198 32.0124 5.83198 32.0444 5.83198C32.2684 5.83198 32.455 5.91198 32.6044 6.07198C32.7644 6.22132 32.8444 6.40798 32.8444 6.63198C32.8444 6.85598 32.7644 7.04798 32.6044 7.20798C32.455 7.35732 32.2684 7.43198 32.0444 7.43198C30.8177 7.43198 30.1724 7.43198 30.1084 7.43198C30.0764 7.76265 30.0497 8.05598 30.0284 8.31198C29.8897 9.63465 29.8044 10.6266 29.7724 11.288C29.751 11.6826 29.7457 11.976 29.7564 12.168C29.7564 12.1893 29.7564 12.2053 29.7564 12.216C29.863 12.408 29.8844 12.6106 29.8204 12.824C29.7564 13.0373 29.6284 13.1973 29.4364 13.304C29.2444 13.4107 29.0417 13.432 28.8284 13.368C28.6044 13.2933 28.4337 13.1546 28.3164 12.952C28.2737 12.8666 28.2364 12.7706 28.2044 12.664C28.183 12.5573 28.167 12.4186 28.1564 12.248C28.1457 11.992 28.151 11.64 28.1724 11.192C28.215 10.5093 28.3004 9.49598 28.4284 8.15198C28.4497 7.92798 28.4764 7.67198 28.5084 7.38398C28.0177 7.36265 27.5484 7.33065 27.1004 7.28798Z" fill="black"/>
<path d="M16.2566 7.28798C16.0433 7.26665 15.8673 7.17065 15.7286 6.99998C15.5899 6.81865 15.5313 6.62131 15.5526 6.40798C15.5739 6.18398 15.6699 6.00265 15.8406 5.86398C16.0113 5.72532 16.2086 5.66665 16.4326 5.68798C16.8699 5.74132 17.3393 5.77865 17.8406 5.79998C18.0219 4.06131 18.1179 2.96798 18.1286 2.51998C18.1393 2.29598 18.2246 2.10931 18.3846 1.95998C18.5446 1.81065 18.7313 1.74132 18.9446 1.75198C19.1686 1.75198 19.3553 1.83198 19.5046 1.99198C19.6646 2.15198 19.7393 2.34398 19.7286 2.56798C19.7179 3.01598 19.6219 4.10398 19.4406 5.83198C19.4619 5.83198 19.7499 5.83198 20.3046 5.83198C20.8699 5.83198 21.1686 5.83198 21.2006 5.83198C21.4246 5.83198 21.6113 5.91198 21.7606 6.07198C21.9206 6.22132 22.0006 6.40798 22.0006 6.63198C22.0006 6.85598 21.9206 7.04798 21.7606 7.20798C21.6113 7.35732 21.4246 7.43198 21.2006 7.43198C19.9739 7.43198 19.3286 7.43198 19.2646 7.43198C19.2326 7.76265 19.2059 8.05598 19.1846 8.31198C19.0459 9.63465 18.9606 10.6266 18.9286 11.288C18.9073 11.6826 18.9019 11.976 18.9126 12.168C18.9126 12.1893 18.9126 12.2053 18.9126 12.216C19.0193 12.408 19.0406 12.6106 18.9766 12.824C18.9126 13.0373 18.7846 13.1973 18.5926 13.304C18.4006 13.4107 18.1979 13.432 17.9846 13.368C17.7606 13.2933 17.5899 13.1546 17.4726 12.952C17.4299 12.8666 17.3926 12.7706 17.3606 12.664C17.3393 12.5573 17.3233 12.4186 17.3126 12.248C17.3019 11.992 17.3073 11.64 17.3286 11.192C17.3713 10.5093 17.4566 9.49598 17.5846 8.15198C17.6059 7.92798 17.6326 7.67198 17.6646 7.38398C17.1739 7.36265 16.7046 7.33065 16.2566 7.28798Z" fill="black"/>
<path d="M14.3697 1.976C14.4124 1.76267 14.5244 1.59733 14.7057 1.48C14.8977 1.352 15.1004 1.30933 15.3137 1.352C15.5271 1.39467 15.6924 1.512 15.8097 1.704C15.9377 1.88533 15.9804 2.08267 15.9377 2.296C15.2124 5.89067 14.7164 9.29333 14.4497 12.504C14.4284 12.728 14.3324 12.9093 14.1617 13.048C13.9911 13.1973 13.7937 13.2613 13.5697 13.24C13.3564 13.2187 13.1751 13.1227 13.0257 12.952C12.8871 12.7813 12.8284 12.5893 12.8497 12.376C13.1271 9.10133 13.6337 5.63467 14.3697 1.976Z" fill="black"/>
<path d="M5.44995 6.42969L3.64526 5.17188L3.84058 7.35938H2.4187L2.61401 5.17188L0.801514 6.4375L0.0983887 5.17969L2.06714 4.28125L0.0983887 3.36719L0.801514 2.11719L2.59839 3.35156L2.4187 1.1875H3.84839L3.66089 3.34375L5.44995 2.10938L6.1687 3.36719L4.17651 4.28125L6.1687 5.17969L5.44995 6.42969Z" fill="black"/>
</svg>
