<svg width="228" height="18" viewBox="0 0 228 18" fill="none" xmlns="http://www.w3.org/2000/svg">
<path d="M221.596 7.28798C221.382 7.26665 221.206 7.17065 221.068 6.99998C220.929 6.81865 220.87 6.62131 220.892 6.40798C220.913 6.18398 221.009 6.00265 221.18 5.86398C221.35 5.72532 221.548 5.66665 221.772 5.68798C222.209 5.74132 222.678 5.77865 223.18 5.79998C223.361 4.06131 223.457 2.96798 223.468 2.51998C223.478 2.29598 223.564 2.10931 223.724 1.95998C223.884 1.81065 224.07 1.74132 224.284 1.75198C224.508 1.75198 224.694 1.83198 224.844 1.99198C225.004 2.15198 225.078 2.34398 225.068 2.56798C225.057 3.01598 224.961 4.10398 224.78 5.83198C224.801 5.83198 225.089 5.83198 225.644 5.83198C226.209 5.83198 226.508 5.83198 226.54 5.83198C226.764 5.83198 226.95 5.91198 227.1 6.07198C227.26 6.22132 227.34 6.40798 227.34 6.63198C227.34 6.85598 227.26 7.04798 227.1 7.20798C226.95 7.35732 226.764 7.43198 226.54 7.43198C225.313 7.43198 224.668 7.43198 224.604 7.43198C224.572 7.76265 224.545 8.05598 224.524 8.31198C224.385 9.63465 224.3 10.6266 224.268 11.288C224.246 11.6826 224.241 11.976 224.252 12.168C224.252 12.1893 224.252 12.2053 224.252 12.216C224.358 12.408 224.38 12.6106 224.316 12.824C224.252 13.0373 224.124 13.1973 223.932 13.304C223.74 13.4107 223.537 13.432 223.324 13.368C223.1 13.2933 222.929 13.1546 222.812 12.952C222.769 12.8666 222.732 12.7706 222.7 12.664C222.678 12.5573 222.662 12.4186 222.652 12.248C222.641 11.992 222.646 11.64 222.668 11.192C222.71 10.5093 222.796 9.49598 222.924 8.15198C222.945 7.92798 222.972 7.67198 223.004 7.38398C222.513 7.36265 222.044 7.33065 221.596 7.28798Z" fill="black"/>
<path d="M219.551 5.44802C219.583 5.23469 219.684 5.06402 219.855 4.93602C220.036 4.79736 220.233 4.74402 220.447 4.77602C220.671 4.79736 220.847 4.89869 220.975 5.08002C221.113 5.25069 221.172 5.44802 221.151 5.67202C221.033 6.49335 220.884 7.66135 220.703 9.17602C220.521 10.6907 220.399 11.7147 220.335 12.248C220.303 12.472 220.196 12.6534 220.015 12.792C219.844 12.92 219.647 12.9734 219.423 12.952C219.209 12.92 219.033 12.8187 218.895 12.648C218.767 12.4667 218.713 12.2694 218.735 12.056C218.809 11.512 218.937 10.4827 219.119 8.96802C219.3 7.44269 219.444 6.26936 219.551 5.44802ZM221.055 2.42402C221.215 2.57336 221.295 2.76002 221.295 2.98402C221.295 3.20802 221.215 3.40002 221.055 3.56002C220.905 3.70935 220.719 3.78402 220.495 3.78402C220.271 3.78402 220.079 3.70935 219.919 3.56002C219.769 3.40002 219.695 3.20802 219.695 2.98402C219.695 2.76002 219.769 2.57336 219.919 2.42402C220.079 2.26402 220.271 2.18402 220.495 2.18402C220.719 2.18402 220.905 2.26402 221.055 2.42402Z" fill="black"/>
<path d="M216.066 10.712C216.215 9.47464 216.354 8.16264 216.482 6.77597C215.778 6.76531 215.138 6.86131 214.562 7.06397C213.986 7.26664 213.527 7.53864 213.186 7.87997C212.844 8.21064 212.583 8.56797 212.402 8.95197C212.22 9.32531 212.119 9.69864 212.098 10.072C212.076 10.4453 212.13 10.76 212.258 11.016C212.386 11.272 212.567 11.4533 212.802 11.56C212.94 11.624 213.095 11.6613 213.266 11.672C213.447 11.6826 213.66 11.672 213.906 11.64C214.162 11.5973 214.46 11.5066 214.802 11.368C215.143 11.2186 215.511 11.0266 215.906 10.792C215.959 10.76 216.012 10.7333 216.066 10.712ZM216.93 2.00797C216.962 1.78397 217.063 1.60797 217.234 1.47997C217.404 1.34131 217.596 1.28797 217.81 1.31997C218.034 1.34131 218.215 1.43731 218.354 1.60797C218.492 1.77864 218.551 1.97597 218.53 2.19997C218.423 3.03197 218.279 4.50397 218.098 6.61597C217.916 8.71731 217.698 10.7066 217.442 12.584C217.41 12.7973 217.303 12.968 217.122 13.096C216.951 13.2346 216.754 13.2933 216.53 13.272C216.359 13.24 216.21 13.1653 216.082 13.048C215.964 12.9413 215.89 12.808 215.858 12.648C214.396 13.352 213.159 13.4746 212.146 13.016C211.559 12.76 211.127 12.3546 210.85 11.8C210.572 11.2453 210.455 10.6426 210.498 9.99197C210.53 9.38397 210.684 8.79731 210.962 8.23198C211.25 7.65597 211.644 7.13331 212.146 6.66397C212.647 6.18397 213.287 5.81064 214.066 5.54397C214.844 5.26664 215.692 5.14931 216.61 5.19197C216.716 3.99731 216.823 2.93597 216.93 2.00797Z" fill="black"/>
<path d="M204.273 9.25597C204.241 9.54397 204.246 9.82131 204.289 10.088C204.427 10.888 204.811 11.3893 205.441 11.592C206.326 11.8586 207.542 11.5333 209.089 10.616C209.281 10.4986 209.483 10.472 209.697 10.536C209.91 10.5893 210.075 10.712 210.193 10.904C210.31 11.0853 210.337 11.2826 210.273 11.496C210.219 11.7093 210.102 11.8746 209.921 11.992C207.958 13.1546 206.305 13.528 204.961 13.112C204.321 12.92 203.814 12.5733 203.441 12.072C203.067 11.5706 202.827 10.9946 202.721 10.344C202.625 9.75731 202.641 9.14397 202.769 8.50397C202.907 7.86397 203.137 7.26131 203.457 6.69597C203.787 6.13064 204.241 5.64531 204.817 5.23997C205.403 4.83464 206.059 4.58931 206.785 4.50397C208.246 4.32264 209.275 4.50397 209.873 5.04797C210.129 5.27197 210.289 5.53864 210.353 5.84797C210.417 6.14664 210.406 6.42397 210.321 6.67997C210.246 6.93597 210.129 7.17597 209.969 7.39997C209.489 8.08264 208.737 8.62131 207.713 9.01597C206.699 9.41064 205.622 9.51197 204.481 9.31997C204.406 9.30931 204.337 9.28797 204.273 9.25597ZM208.785 6.21597C208.529 6.01331 207.926 5.97064 206.977 6.08797C206.486 6.14131 206.043 6.31731 205.649 6.61597C205.265 6.91464 204.955 7.28797 204.721 7.73597C204.721 7.74664 204.726 7.75197 204.737 7.75197C205.59 7.89064 206.385 7.81597 207.121 7.52797C207.857 7.23997 208.369 6.89331 208.657 6.48797C208.742 6.37064 208.785 6.27997 208.785 6.21597Z" fill="black"/>
<path d="M196.435 5.24001C196.51 5.02668 196.643 4.87201 196.835 4.77601C197.038 4.68001 197.24 4.66934 197.443 4.74401C197.635 4.80801 197.779 4.92534 197.875 5.09601C198.174 4.89334 198.483 4.74401 198.803 4.64801C199.795 4.34934 200.878 4.57867 202.051 5.33601C202.243 5.45334 202.36 5.62401 202.403 5.84801C202.446 6.06134 202.408 6.26401 202.291 6.45601C202.174 6.63734 202.003 6.74934 201.779 6.79201C201.566 6.83468 201.368 6.79734 201.187 6.68001C200.43 6.18934 199.79 6.01867 199.267 6.16801C198.755 6.32801 198.227 6.79734 197.683 7.57601C197.662 7.90668 197.64 8.26401 197.619 8.64801C197.555 9.83201 197.523 10.9627 197.523 12.04C197.523 12.264 197.443 12.456 197.283 12.616C197.134 12.7653 196.947 12.84 196.723 12.84C196.499 12.84 196.307 12.7653 196.147 12.616C195.998 12.456 195.923 12.264 195.923 12.04C195.923 10.9413 195.955 9.78401 196.019 8.56801C196.115 6.87201 196.254 5.76267 196.435 5.24001Z" fill="black"/>
<path d="M194.782 1.65598C194.996 1.70931 195.156 1.83198 195.262 2.02398C195.38 2.21598 195.412 2.41865 195.358 2.63198C195.305 2.84531 195.182 3.01065 194.99 3.12798C194.809 3.23465 194.612 3.26131 194.398 3.20798C192.169 2.65331 190.377 3.04798 189.022 4.39198C188.446 4.95731 188.009 5.63465 187.71 6.42398C187.412 7.21331 187.268 8.00265 187.278 8.79198C187.3 9.55998 187.454 10.2053 187.742 10.728C188.03 11.2506 188.414 11.592 188.894 11.752C189.46 11.944 190.196 11.8746 191.102 11.544C192.02 11.2133 193.097 10.5146 194.334 9.44798C194.494 9.29865 194.686 9.23465 194.91 9.25598C195.134 9.26665 195.316 9.35732 195.454 9.52798C195.604 9.68798 195.668 9.87998 195.646 10.104C195.636 10.3173 195.545 10.4986 195.374 10.648C192.622 13.048 190.286 13.9226 188.366 13.272C187.78 13.0693 187.278 12.728 186.862 12.248C186.446 11.768 186.148 11.24 185.966 10.664C185.785 10.088 185.689 9.47465 185.678 8.82398C185.668 7.82131 185.849 6.82398 186.222 5.83198C186.606 4.83998 187.166 3.98131 187.902 3.25598C188.436 2.72265 189.038 2.30131 189.71 1.99198C190.382 1.68265 191.15 1.48531 192.014 1.39998C192.878 1.31465 193.801 1.39998 194.782 1.65598Z" fill="black"/>
<path d="M174.404 5.24001C174.479 5.02668 174.612 4.87201 174.804 4.77601C175.007 4.68001 175.209 4.66934 175.412 4.74401C175.604 4.80801 175.748 4.92534 175.844 5.09601C176.143 4.89334 176.452 4.74401 176.772 4.64801C177.764 4.34934 178.847 4.57867 180.02 5.33601C180.212 5.45334 180.329 5.62401 180.372 5.84801C180.415 6.06134 180.377 6.26401 180.26 6.45601C180.143 6.63734 179.972 6.74934 179.748 6.79201C179.535 6.83468 179.337 6.79734 179.156 6.68001C178.399 6.18934 177.759 6.01867 177.236 6.16801C176.724 6.32801 176.196 6.79734 175.652 7.57601C175.631 7.90668 175.609 8.26401 175.588 8.64801C175.524 9.83201 175.492 10.9627 175.492 12.04C175.492 12.264 175.412 12.456 175.252 12.616C175.103 12.7653 174.916 12.84 174.692 12.84C174.468 12.84 174.276 12.7653 174.116 12.616C173.967 12.456 173.892 12.264 173.892 12.04C173.892 10.9413 173.924 9.78401 173.988 8.56801C174.084 6.87201 174.223 5.76267 174.404 5.24001Z" fill="black"/>
<path d="M167.583 5.096C167.658 4.89333 167.797 4.74933 167.999 4.664C168.202 4.568 168.405 4.55733 168.607 4.632C168.821 4.70666 168.97 4.84533 169.055 5.048C169.151 5.25066 169.162 5.45866 169.087 5.672C168.639 6.84533 168.373 7.928 168.287 8.92C168.181 10.1573 168.389 10.9627 168.911 11.336C168.986 11.3893 169.082 11.3787 169.199 11.304C169.455 11.1227 169.738 10.7813 170.047 10.28C170.325 9.832 170.57 9.34133 170.783 8.808C171.007 8.264 171.162 7.83733 171.247 7.528C171.258 7.48533 171.295 7.26666 171.359 6.872C171.381 6.75466 171.413 6.57333 171.455 6.328C171.509 6.072 171.546 5.89066 171.567 5.784C171.599 5.592 171.621 5.448 171.631 5.352C171.642 5.29866 171.653 5.25066 171.663 5.208C171.674 5.18666 171.679 5.16533 171.679 5.144C171.701 5.06933 171.738 4.98933 171.791 4.904C171.877 4.744 172.021 4.632 172.223 4.568C172.458 4.49333 172.677 4.52 172.879 4.648C173.007 4.72266 173.103 4.824 173.167 4.952C173.199 5.00533 173.221 5.064 173.231 5.128C173.253 5.18133 173.263 5.224 173.263 5.256V5.304C173.263 5.336 173.263 5.37333 173.263 5.416C173.263 5.45866 173.258 5.51733 173.247 5.592C173.226 5.72 173.199 5.928 173.167 6.216C173.125 6.51466 173.034 6.99466 172.895 7.656C172.767 8.25333 172.682 8.712 172.639 9.032C172.522 9.97066 172.591 10.7333 172.847 11.32C173.039 11.416 173.183 11.496 173.279 11.56C173.461 11.688 173.567 11.864 173.599 12.088C173.642 12.3013 173.599 12.4987 173.471 12.68C173.343 12.8613 173.167 12.968 172.943 13C172.73 13.0427 172.533 13 172.351 12.872C172.33 12.8613 172.314 12.856 172.303 12.856C172.293 12.8453 172.266 12.8293 172.223 12.808C172.181 12.7867 172.127 12.7547 172.063 12.712C171.765 12.552 171.557 12.3493 171.439 12.104C171.343 11.9013 171.263 11.688 171.199 11.464C170.837 11.9867 170.469 12.376 170.095 12.632C169.359 13.1227 168.655 13.128 167.983 12.648C166.959 11.9227 166.527 10.632 166.687 8.776C166.794 7.64533 167.093 6.41866 167.583 5.096Z" fill="black"/>
<path d="M164.795 7.67198C164.603 7.06398 164.363 6.67998 164.075 6.51998C163.861 6.39198 163.579 6.41865 163.227 6.59998C162.79 6.83465 162.368 7.22932 161.963 7.78398C161.557 8.32798 161.275 8.89865 161.115 9.49598C160.934 10.2213 160.864 10.6906 160.907 10.904C160.939 11.0746 161.008 11.2027 161.115 11.288C161.222 11.3627 161.381 11.4107 161.595 11.432C162.085 11.464 162.587 11.3413 163.099 11.064C163.632 10.776 164.043 10.344 164.331 9.76798C164.619 9.18132 164.768 8.53065 164.779 7.81598C164.779 7.76265 164.784 7.71465 164.795 7.67198ZM166.427 7.59198C166.48 7.78398 166.459 7.97065 166.363 8.15198C166.31 9.04798 166.075 9.88532 165.659 10.664C165.253 11.432 164.656 12.0347 163.867 12.472C163.078 12.8987 162.277 13.08 161.467 13.016C160.955 12.984 160.501 12.824 160.107 12.536C159.712 12.2373 159.456 11.8 159.339 11.224C159.243 10.7653 159.323 10.0506 159.579 9.07998C159.781 8.30132 160.149 7.54398 160.683 6.80798C161.227 6.07198 161.829 5.53332 162.491 5.19198C163.344 4.74398 164.133 4.71732 164.859 5.11198C165.595 5.52798 166.117 6.35465 166.427 7.59198Z" fill="black"/>
<path d="M153.053 4.664C153.139 4.46133 153.283 4.31733 153.485 4.232C153.688 4.136 153.891 4.13066 154.093 4.216C154.296 4.29066 154.44 4.42933 154.525 4.632C154.621 4.83466 154.632 5.03733 154.557 5.24C154.259 5.99733 154.088 6.84533 154.045 7.784C154.003 8.712 154.088 9.416 154.301 9.896C154.355 10.0347 154.408 10.136 154.461 10.2C154.515 10.264 154.552 10.2907 154.573 10.28C154.595 10.2587 154.611 10.2533 154.621 10.264C154.792 10.2213 155.021 10.072 155.309 9.816C155.608 9.54933 155.96 9.12266 156.365 8.536C156.76 7.97066 157.123 7.15466 157.453 6.088C157.571 5.72533 157.672 5.39466 157.757 5.096C157.811 4.92533 157.907 4.78666 158.045 4.68C158.184 4.57333 158.344 4.52 158.525 4.52C158.6 4.52 158.675 4.53066 158.749 4.552C158.92 4.60533 159.059 4.70133 159.165 4.84C159.272 4.97866 159.325 5.13866 159.325 5.32C159.325 5.39466 159.315 5.46933 159.293 5.544C159.155 6.03466 159.043 6.408 158.957 6.664C158.904 6.83466 158.755 7.30933 158.509 8.088C158.275 8.856 158.099 9.44266 157.981 9.848C157.928 10.0187 157.784 10.6427 157.549 11.72C157.336 12.6907 157.117 13.4693 156.893 14.056C156.125 16.168 154.947 17.2453 153.357 17.288C152.461 17.3093 151.741 17.0107 151.197 16.392C150.856 16.008 150.6 15.544 150.429 15C150.259 14.4667 150.173 13.9387 150.173 13.416C150.173 13.192 150.253 13.0053 150.413 12.856C150.563 12.696 150.749 12.616 150.973 12.616C151.197 12.616 151.389 12.696 151.549 12.856C151.699 13.0053 151.773 13.192 151.773 13.416C151.773 13.768 151.827 14.12 151.933 14.472C152.051 14.824 152.211 15.112 152.413 15.336C152.627 15.5813 152.931 15.6987 153.325 15.688C153.773 15.6773 154.163 15.4907 154.493 15.128C154.835 14.776 155.133 14.2373 155.389 13.512C155.581 12.9893 155.779 12.2747 155.981 11.368C155.992 11.3573 155.997 11.3413 155.997 11.32C155.645 11.576 155.304 11.7413 154.973 11.816C154.451 11.9333 154.008 11.8587 153.645 11.592C153.283 11.3147 153.005 10.952 152.813 10.504C152.515 9.736 152.392 8.80266 152.445 7.704C152.499 6.59466 152.701 5.58133 153.053 4.664Z" fill="black"/>
<path d="M141.346 7.28798C141.132 7.26665 140.956 7.17065 140.818 6.99998C140.679 6.81865 140.62 6.62131 140.642 6.40798C140.663 6.18398 140.759 6.00265 140.93 5.86398C141.1 5.72532 141.298 5.66665 141.522 5.68798C141.959 5.74132 142.428 5.77865 142.93 5.79998C143.111 4.06131 143.207 2.96798 143.218 2.51998C143.228 2.29598 143.314 2.10931 143.474 1.95998C143.634 1.81065 143.82 1.74132 144.034 1.75198C144.258 1.75198 144.444 1.83198 144.594 1.99198C144.754 2.15198 144.828 2.34398 144.818 2.56798C144.807 3.01598 144.711 4.10398 144.53 5.83198C144.551 5.83198 144.839 5.83198 145.394 5.83198C145.959 5.83198 146.258 5.83198 146.29 5.83198C146.514 5.83198 146.7 5.91198 146.85 6.07198C147.01 6.22132 147.09 6.40798 147.09 6.63198C147.09 6.85598 147.01 7.04798 146.85 7.20798C146.7 7.35732 146.514 7.43198 146.29 7.43198C145.063 7.43198 144.418 7.43198 144.354 7.43198C144.322 7.76265 144.295 8.05598 144.274 8.31198C144.135 9.63465 144.05 10.6266 144.018 11.288C143.996 11.6826 143.991 11.976 144.002 12.168C144.002 12.1893 144.002 12.2053 144.002 12.216C144.108 12.408 144.13 12.6106 144.066 12.824C144.002 13.0373 143.874 13.1973 143.682 13.304C143.49 13.4107 143.287 13.432 143.074 13.368C142.85 13.2933 142.679 13.1546 142.562 12.952C142.519 12.8666 142.482 12.7706 142.45 12.664C142.428 12.5573 142.412 12.4186 142.402 12.248C142.391 11.992 142.396 11.64 142.418 11.192C142.46 10.5093 142.546 9.49598 142.674 8.15198C142.695 7.92798 142.722 7.67198 142.754 7.38398C142.263 7.36265 141.794 7.33065 141.346 7.28798Z" fill="black"/>
<path d="M140.444 5.88002C140.625 6.00802 140.732 6.18402 140.764 6.40802C140.796 6.62135 140.748 6.81869 140.62 7.00002C140.492 7.17069 140.316 7.27735 140.092 7.32002C139.878 7.35202 139.681 7.29869 139.5 7.16002C138.54 6.46669 137.686 6.39202 136.94 6.93602C136.598 7.18135 136.305 7.52802 136.06 7.97602C135.825 8.42402 135.676 8.89869 135.612 9.40002C135.548 9.89069 135.574 10.3014 135.692 10.632C135.809 10.9627 135.98 11.192 136.204 11.32C136.332 11.3947 136.486 11.4427 136.668 11.464C136.849 11.4747 137.084 11.4587 137.372 11.416C137.66 11.3627 138.012 11.2454 138.428 11.064C138.854 10.872 139.313 10.616 139.804 10.296C139.985 10.1787 140.182 10.1467 140.396 10.2C140.62 10.2427 140.79 10.3547 140.908 10.536C141.025 10.7174 141.057 10.92 141.004 11.144C140.961 11.3574 140.849 11.5227 140.668 11.64C138.449 13.0694 136.705 13.432 135.436 12.728C134.828 12.3974 134.417 11.9067 134.204 11.256C133.99 10.5947 133.932 9.90669 134.028 9.19202C134.124 8.49869 134.342 7.83202 134.684 7.19202C135.025 6.55202 135.462 6.03469 135.996 5.64002C136.412 5.34135 136.854 5.14402 137.324 5.04802C137.793 4.94135 138.294 4.95735 138.828 5.09602C139.372 5.22402 139.91 5.48535 140.444 5.88002Z" fill="black"/>
<path d="M130.738 7.03201C130.738 7.01068 130.738 6.98934 130.738 6.96801C130.738 6.95734 130.738 6.90934 130.738 6.82401C130.738 6.73868 130.738 6.68001 130.738 6.64801C130.748 6.50934 130.77 6.38668 130.802 6.28001C130.706 6.13068 130.599 6.01868 130.482 5.94401C130.29 5.82668 130.034 5.80534 129.714 5.88001C129.33 5.97601 128.946 6.17868 128.562 6.48801C128.178 6.79734 127.884 7.14934 127.682 7.54401C127.34 8.17334 127.132 8.96801 127.058 9.92801C127.036 10.1307 127.031 10.4027 127.042 10.744C127.042 10.9253 127.047 11.0747 127.058 11.192C127.068 11.224 127.074 11.2507 127.074 11.272C127.212 11.4747 127.346 11.5653 127.474 11.544C127.719 11.512 128.034 11.3147 128.418 10.952C128.77 10.6213 129.106 10.2267 129.426 9.76801C129.756 9.29868 129.996 8.91468 130.146 8.61601C130.348 8.23201 130.546 7.70401 130.738 7.03201ZM132.578 6.53601C132.631 6.76001 132.594 6.96801 132.466 7.16001C132.455 7.20268 132.45 7.24534 132.45 7.28801C132.428 7.41601 132.359 7.81068 132.242 8.47201C132.06 9.49601 131.991 10.1733 132.034 10.504C132.108 10.9947 132.434 11.4693 133.01 11.928C133.18 12.0667 133.276 12.248 133.298 12.472C133.319 12.6853 133.26 12.8773 133.122 13.048C132.994 13.2187 132.818 13.3147 132.594 13.336C132.37 13.368 132.172 13.3147 132.002 13.176C131.191 12.5253 130.69 11.8 130.498 11C130.167 11.4373 129.842 11.8107 129.522 12.12C128.892 12.7173 128.284 13.0533 127.698 13.128C126.855 13.256 126.178 12.8933 125.666 12.04C125.57 11.88 125.506 11.656 125.474 11.368C125.452 11.208 125.442 11.0107 125.442 10.776C125.431 10.3813 125.436 10.056 125.458 9.80001C125.554 8.61601 125.826 7.60801 126.274 6.77601C126.583 6.20001 127.015 5.68801 127.57 5.24001C128.135 4.78134 128.722 4.47734 129.33 4.32801C130.076 4.14668 130.738 4.22668 131.314 4.56801C131.943 4.95201 132.364 5.60801 132.578 6.53601Z" fill="black"/>
<path d="M118.897 11.08C120.508 11.3893 121.724 11.1707 122.545 10.424C122.886 10.1147 123.132 9.73599 123.281 9.28799C123.441 8.83999 123.494 8.38665 123.441 7.92799C123.388 7.49065 123.26 7.12265 123.057 6.82399C122.854 6.52532 122.609 6.33332 122.321 6.24799C122.001 6.14132 121.59 6.17865 121.089 6.35999C120.598 6.53065 120.033 6.92532 119.393 7.54399C119.318 8.07732 119.153 9.25599 118.897 11.08ZM118.097 5.33599C118.118 5.11199 118.22 4.93599 118.401 4.80799C118.582 4.67999 118.78 4.63199 118.993 4.66399C119.164 4.68532 119.308 4.75465 119.425 4.87199C119.553 4.98932 119.633 5.13332 119.665 5.30399C120.796 4.61065 121.841 4.41865 122.801 4.72799C123.441 4.93065 123.953 5.31465 124.337 5.87999C124.721 6.43465 124.95 7.05865 125.025 7.75199C125.1 8.44532 125.02 9.13865 124.785 9.83199C124.55 10.5147 124.161 11.1067 123.617 11.608C122.412 12.696 120.764 13.0533 118.673 12.68C118.492 14.0347 118.321 15.2187 118.161 16.232C118.129 16.456 118.022 16.632 117.841 16.76C117.67 16.888 117.473 16.936 117.249 16.904C117.036 16.872 116.865 16.7653 116.737 16.584C116.609 16.4133 116.561 16.2213 116.593 16.008C116.774 14.728 117.03 12.8933 117.361 10.504C117.692 8.10399 117.937 6.38132 118.097 5.33599Z" fill="black"/>
<path d="M106.095 5.20799C106.137 4.99466 106.249 4.82933 106.431 4.71199C106.612 4.58399 106.815 4.54133 107.039 4.58399C107.295 4.63733 107.481 4.78133 107.599 5.01599C107.631 4.98399 107.668 4.95199 107.711 4.91999C108.447 4.29066 109.188 4.14133 109.935 4.47199C110.425 4.69599 110.788 5.14399 111.023 5.81599C111.129 6.15733 111.209 6.56799 111.263 7.04799C111.465 6.72799 111.663 6.43466 111.855 6.16799C112.367 5.47466 112.879 4.97866 113.391 4.67999C114.169 4.23199 114.895 4.23199 115.567 4.67999C116.036 4.97866 116.308 5.57066 116.383 6.45599C116.436 7.02133 116.415 7.73066 116.319 8.58399C116.212 9.66133 116.015 10.856 115.727 12.168C115.673 12.3813 115.551 12.5467 115.359 12.664C115.177 12.7813 114.98 12.8187 114.767 12.776C114.553 12.7227 114.388 12.6053 114.271 12.424C114.153 12.232 114.116 12.0293 114.159 11.816C114.436 10.568 114.628 9.43733 114.735 8.42399C114.809 7.66666 114.825 7.05866 114.783 6.59999C114.783 6.51466 114.772 6.43466 114.751 6.35999C114.74 6.28533 114.729 6.23199 114.719 6.19999C114.708 6.15733 114.697 6.11999 114.687 6.08799C114.687 6.05599 114.687 6.03466 114.687 6.02399L114.671 6.00799C114.543 5.93332 114.383 5.95466 114.191 6.07199C113.871 6.25333 113.524 6.59999 113.151 7.11199C112.82 7.55999 112.511 8.05599 112.223 8.59999C111.945 9.13333 111.748 9.56533 111.631 9.89599C111.46 10.3547 111.353 10.6587 111.311 10.808C111.332 10.904 111.337 11.0107 111.327 11.128C111.316 11.352 111.257 11.6933 111.151 12.152C111.129 12.216 111.113 12.2587 111.103 12.28C111.103 12.3013 111.097 12.3227 111.087 12.344C111.076 12.3867 111.06 12.424 111.039 12.456C110.943 12.616 110.804 12.728 110.623 12.792C110.356 12.8987 110.105 12.8667 109.871 12.696C109.753 12.6 109.663 12.4827 109.599 12.344C109.577 12.2693 109.561 12.1893 109.551 12.104C109.551 12.072 109.551 12.04 109.551 12.008C109.551 11.976 109.551 11.944 109.551 11.912C109.583 11.7413 109.599 11.6453 109.599 11.624C109.652 11.1867 109.684 10.7173 109.695 10.216C109.695 10.1947 109.7 9.96533 109.711 9.52799C109.732 9.09066 109.743 8.78666 109.743 8.61599C109.743 8.44532 109.732 8.09866 109.711 7.57599C109.679 7.05333 109.609 6.63732 109.503 6.32799C109.471 6.22132 109.433 6.13599 109.391 6.07199C109.359 6.00799 109.332 5.97066 109.311 5.95999L109.295 5.94399C109.156 5.87999 108.975 5.94399 108.751 6.13599C108.431 6.41333 108.095 6.88266 107.743 7.54399C107.423 8.14133 107.14 8.80799 106.895 9.54399C106.895 9.59733 106.889 9.69333 106.879 9.83199C106.868 9.95999 106.857 10.072 106.847 10.168C106.804 10.584 106.708 11.1227 106.559 11.784C106.516 11.9333 106.479 12.0507 106.447 12.136C106.425 12.2 106.399 12.2587 106.367 12.312C106.303 12.3973 106.228 12.4667 106.143 12.52C105.908 12.68 105.657 12.7067 105.391 12.6C105.199 12.5253 105.06 12.3973 104.975 12.216C104.943 12.152 104.916 12.088 104.895 12.024C104.884 11.9707 104.879 11.912 104.879 11.848C104.879 11.6773 104.916 11.2453 104.991 10.552C105.033 10.2213 105.145 9.77333 105.327 9.20799C105.359 8.94133 105.433 8.51466 105.551 7.92799C105.668 7.37333 105.849 6.46666 106.095 5.20799Z" fill="black"/>
<path d="M103.426 5.44802C103.458 5.23469 103.559 5.06402 103.73 4.93602C103.911 4.79736 104.108 4.74402 104.322 4.77602C104.546 4.79736 104.722 4.89869 104.85 5.08002C104.988 5.25069 105.047 5.44802 105.026 5.67202C104.908 6.49335 104.759 7.66135 104.578 9.17602C104.396 10.6907 104.274 11.7147 104.21 12.248C104.178 12.472 104.071 12.6534 103.89 12.792C103.719 12.92 103.522 12.9734 103.298 12.952C103.084 12.92 102.908 12.8187 102.77 12.648C102.642 12.4667 102.588 12.2694 102.61 12.056C102.684 11.512 102.812 10.4827 102.994 8.96802C103.175 7.44269 103.319 6.26936 103.426 5.44802ZM104.93 2.42402C105.09 2.57336 105.17 2.76002 105.17 2.98402C105.17 3.20802 105.09 3.40002 104.93 3.56002C104.78 3.70935 104.594 3.78402 104.37 3.78402C104.146 3.78402 103.954 3.70935 103.794 3.56002C103.644 3.40002 103.57 3.20802 103.57 2.98402C103.57 2.76002 103.644 2.57336 103.794 2.42402C103.954 2.26402 104.146 2.18402 104.37 2.18402C104.594 2.18402 104.78 2.26402 104.93 2.42402Z" fill="black"/>
<path d="M89.3391 3.19201C89.1151 3.17068 88.9284 3.08001 88.7791 2.92001C88.6404 2.74934 88.5764 2.55734 88.5871 2.34401C88.6084 2.12001 88.6991 1.93868 88.8591 1.80001C89.0298 1.65068 89.2218 1.58134 89.4351 1.59201C90.2031 1.64534 91.4244 1.67734 93.0991 1.68801C94.7311 1.69868 95.9844 1.73601 96.8591 1.80001C97.0831 1.82134 97.2644 1.91734 97.4031 2.08801C97.5524 2.24801 97.6164 2.44001 97.5951 2.66401C97.5737 2.88801 97.4777 3.07468 97.3071 3.22401C97.1471 3.36268 96.9551 3.42134 96.7311 3.40001C96.0591 3.34668 95.2751 3.30934 94.3791 3.28801C94.3257 3.65068 94.2191 4.30134 94.0591 5.24001C93.8991 6.17868 93.7924 6.90934 93.7391 7.43201C93.6964 7.74134 93.6431 8.18934 93.5791 8.77601C93.5258 9.36268 93.4938 9.71468 93.4831 9.83201C93.3871 10.8133 93.2698 11.6347 93.1311 12.296C93.0884 12.5093 92.9711 12.68 92.7791 12.808C92.5977 12.9253 92.4004 12.9627 92.1871 12.92C91.9738 12.8773 91.8031 12.7653 91.6751 12.584C91.5578 12.392 91.5204 12.1893 91.5631 11.976C91.6911 11.368 91.8031 10.5947 91.8991 9.65601C91.9098 9.54934 91.9418 9.19734 91.9951 8.60001C92.0591 8.00268 92.1071 7.54934 92.1391 7.24001C92.2031 6.72801 92.3097 6.00801 92.4591 5.08001C92.6191 4.15201 92.7204 3.55468 92.7631 3.28801C91.2697 3.27734 90.1284 3.24534 89.3391 3.19201Z" fill="black"/>
<path d="M86.7324 4.40798C86.6044 4.34398 86.4977 4.24798 86.4124 4.11998C86.103 3.61865 85.831 3.27198 85.5964 3.07998C85.3724 2.88798 85.0524 2.77598 84.6364 2.74398C83.9964 2.67998 83.4204 2.88265 82.9084 3.35198C82.3964 3.81065 81.9857 4.48265 81.6764 5.36798C81.367 6.22131 81.2017 7.10665 81.1804 8.02398C81.1697 8.94131 81.2924 9.65598 81.5484 10.168C81.9324 11.032 82.6364 11.3893 83.6604 11.24C84.151 11.1653 84.631 10.9893 85.1004 10.712C85.5697 10.424 85.943 10.0826 86.2204 9.68798C86.6897 9.02665 86.9617 8.20531 87.0364 7.22398C87.111 6.23198 87.0097 5.29331 86.7324 4.40798ZM86.8604 2.05598C87.031 2.02398 87.1964 2.05065 87.3564 2.13598C87.527 2.21065 87.6497 2.33331 87.7244 2.50398C88.0977 3.30398 88.3644 4.16265 88.5244 5.07998C88.6844 5.99731 88.6897 6.96265 88.5404 7.97598C88.4017 8.98931 88.0657 9.86931 87.5324 10.616C87.127 11.1813 86.5937 11.6666 85.9324 12.072C85.2817 12.4666 84.6044 12.7173 83.9004 12.824C83.1004 12.9413 82.3537 12.84 81.6604 12.52C80.9777 12.2 80.4497 11.64 80.0764 10.84C79.735 10.04 79.575 9.09065 79.5964 7.99198C79.6177 6.89331 79.8044 5.84265 80.1564 4.83998C80.3484 4.31731 80.5777 3.83731 80.8444 3.39998C81.111 2.95198 81.431 2.54665 81.8044 2.18398C82.1884 1.81065 82.6364 1.53331 83.1484 1.35198C83.6604 1.15998 84.2097 1.09064 84.7964 1.14398C85.6284 1.22931 86.3164 1.53331 86.8604 2.05598Z" fill="black"/>
<path d="M71.2691 12.376C71.2158 12.5893 71.0931 12.7547 70.9011 12.872C70.7091 12.9787 70.5064 13.0053 70.2931 12.952C70.0798 12.8987 69.9144 12.776 69.7971 12.584C69.6904 12.392 69.6638 12.1893 69.7171 11.976C69.9518 11.08 70.2184 9.20267 70.5171 6.34401C70.5278 6.29067 70.6238 5.36267 70.8051 3.56001C70.8478 3.15467 70.8798 2.86134 70.9011 2.68001C70.9118 2.56267 70.9224 2.46667 70.9331 2.39201C70.9438 2.34934 70.9544 2.30667 70.9651 2.26401C70.9758 2.22134 70.9864 2.18401 70.9971 2.15201C71.0184 2.09867 71.0451 2.05067 71.0771 2.00801C71.1624 1.86934 71.2744 1.76801 71.4131 1.70401C71.7331 1.56534 72.0531 1.59734 72.3731 1.80001C72.5118 1.89601 72.6611 2.02934 72.8211 2.20001C73.0344 2.45601 73.2904 2.82934 73.5891 3.32001C74.0158 4.01334 74.6238 5.12267 75.4131 6.64801C76.4584 8.65334 77.0291 9.75201 77.1251 9.94401C77.1464 9.63467 77.1891 8.91467 77.2531 7.78401C77.3278 6.23734 77.3918 5.10134 77.4451 4.37601C77.5304 3.21334 77.6104 2.49334 77.6851 2.21601C77.7491 2.00267 77.8771 1.84801 78.0691 1.75201C78.2611 1.64534 78.4638 1.62401 78.6771 1.68801C78.8904 1.74134 79.0504 1.86934 79.1571 2.07201C79.2638 2.26401 79.2851 2.46134 79.2211 2.66401C79.1784 2.83467 79.1198 3.44267 79.0451 4.48801C78.9918 5.20267 78.9224 6.32801 78.8371 7.86401C78.7518 9.50667 78.6931 10.568 78.6611 11.048C78.6398 11.5173 78.6131 11.864 78.5811 12.088C78.5704 12.2373 78.5544 12.3547 78.5331 12.44C78.5224 12.5253 78.5011 12.6 78.4691 12.664C78.4158 12.7813 78.3411 12.8827 78.2451 12.968C78.1171 13.0747 77.9678 13.1387 77.7971 13.16C77.6264 13.1813 77.4504 13.1333 77.2691 13.016C77.0664 12.888 76.8264 12.6053 76.5491 12.168C76.3571 11.8587 76.1118 11.4267 75.8131 10.872C75.6744 10.616 75.0664 9.45334 73.9891 7.38401C73.2744 5.99734 72.7251 4.98401 72.3411 4.34401C72.2451 5.30401 72.1704 6.02934 72.1171 6.52001C71.8078 9.45334 71.5251 11.4053 71.2691 12.376Z" fill="black"/>
<path d="M62.5205 2.71201C62.5525 2.49868 62.6538 2.32801 62.8245 2.20001C63.0058 2.06135 63.2031 2.01335 63.4165 2.05601C63.6405 2.08801 63.8165 2.19468 63.9445 2.37601C64.0831 2.54668 64.1311 2.74401 64.0885 2.96801C63.8965 4.19468 63.6458 5.95468 63.3365 8.24801C63.0271 10.5307 62.8351 11.9173 62.7605 12.408C62.7391 12.632 62.6378 12.808 62.4565 12.936C62.2751 13.064 62.0725 13.112 61.8485 13.08C61.6351 13.0587 61.4645 12.9573 61.3365 12.776C61.2085 12.5947 61.1605 12.3973 61.1925 12.184C61.2565 11.6933 61.4431 10.3013 61.7525 8.00801C62.0618 5.70401 62.3178 3.93868 62.5205 2.71201Z" fill="black"/>
<path d="M59.1767 2.71201C59.2087 2.49868 59.31 2.32801 59.4807 2.20001C59.662 2.06135 59.8594 2.01335 60.0727 2.05601C60.2967 2.08801 60.4727 2.19468 60.6007 2.37601C60.7394 2.54668 60.7874 2.74401 60.7447 2.96801C60.5527 4.19468 60.302 5.95468 59.9927 8.24801C59.6834 10.5307 59.4914 11.9173 59.4167 12.408C59.3954 12.632 59.294 12.808 59.1127 12.936C58.9314 13.064 58.7287 13.112 58.5047 13.08C58.2914 13.0587 58.1207 12.9573 57.9927 12.776C57.8647 12.5947 57.8167 12.3973 57.8487 12.184C57.9127 11.6933 58.0994 10.3013 58.4087 8.00801C58.718 5.70401 58.974 3.93868 59.1767 2.71201Z" fill="black"/>
<path d="M55.6756 5.44802C55.7076 5.23469 55.8089 5.06402 55.9796 4.93602C56.1609 4.79736 56.3582 4.74402 56.5715 4.77602C56.7955 4.79736 56.9716 4.89869 57.0996 5.08002C57.2382 5.25069 57.2969 5.44802 57.2756 5.67202C57.1582 6.49335 57.0089 7.66135 56.8276 9.17602C56.6462 10.6907 56.5236 11.7147 56.4596 12.248C56.4276 12.472 56.3209 12.6534 56.1396 12.792C55.9689 12.92 55.7716 12.9734 55.5476 12.952C55.3342 12.92 55.1582 12.8187 55.0196 12.648C54.8916 12.4667 54.8382 12.2694 54.8596 12.056C54.9342 11.512 55.0622 10.4827 55.2436 8.96802C55.4249 7.44269 55.5689 6.26936 55.6756 5.44802ZM57.1796 2.42402C57.3396 2.57336 57.4196 2.76002 57.4196 2.98402C57.4196 3.20802 57.3396 3.40002 57.1796 3.56002C57.0302 3.70935 56.8436 3.78402 56.6196 3.78402C56.3956 3.78402 56.2035 3.70935 56.0435 3.56002C55.8942 3.40002 55.8196 3.20802 55.8196 2.98402C55.8196 2.76002 55.8942 2.57336 56.0435 2.42402C56.2035 2.26402 56.3956 2.18402 56.6196 2.18402C56.8436 2.18402 57.0302 2.26402 57.1796 2.42402Z" fill="black"/>
<path d="M43.8605 5.62402C43.8391 5.40002 43.8978 5.20268 44.0365 5.03202C44.1751 4.86135 44.3565 4.76535 44.5805 4.74402C44.8045 4.72268 44.9965 4.78668 45.1565 4.93602C45.3271 5.07468 45.4231 5.25068 45.4445 5.46402C45.4978 5.99735 45.7911 7.05868 46.3245 8.64802C46.5805 9.39468 46.7298 9.83735 46.7725 9.97602C46.9218 9.58135 47.0391 9.28268 47.1245 9.08002C47.5085 8.09868 47.8018 7.36802 48.0045 6.88802C48.1325 6.56802 48.2391 6.31735 48.3245 6.13602C48.3778 6.02935 48.4258 5.94402 48.4685 5.88002C48.5111 5.81602 48.5538 5.75735 48.5965 5.70402C48.6498 5.64002 48.7138 5.58668 48.7885 5.54402C49.0125 5.41602 49.2418 5.39468 49.4765 5.48002C49.7538 5.57602 49.9991 5.81602 50.2125 6.20002C50.3298 6.41335 50.4578 6.70135 50.5965 7.06402C50.7671 7.53335 50.9965 8.28002 51.2845 9.30402C51.4871 9.97602 51.5885 10.3227 51.5885 10.344C51.6311 10.184 51.7111 9.87468 51.8285 9.41602C52.3831 7.12268 52.8205 5.68268 53.1405 5.09602C53.2471 4.90402 53.4018 4.78135 53.6045 4.72802C53.8178 4.66402 54.0205 4.68535 54.2125 4.79202C54.4151 4.88802 54.5485 5.04268 54.6125 5.25602C54.6765 5.46935 54.6551 5.67202 54.5485 5.86402C54.2925 6.32268 53.9031 7.63468 53.3805 9.80002C53.1245 10.8347 52.9431 11.5387 52.8365 11.912C52.7405 12.232 52.6498 12.4827 52.5645 12.664C52.5111 12.8027 52.4471 12.9147 52.3725 13C52.1911 13.2454 51.9618 13.3734 51.6845 13.384C51.3965 13.3947 51.1458 13.2827 50.9325 13.048C50.8578 12.952 50.7831 12.8347 50.7085 12.696C50.6125 12.504 50.5111 12.2373 50.4045 11.896C50.2871 11.576 50.0685 10.856 49.7485 9.73602C49.5351 8.98935 49.3645 8.43468 49.2365 8.07202C49.0765 8.46668 48.8685 9.00002 48.6125 9.67202C48.5591 9.80002 48.4258 10.136 48.2125 10.68C47.9991 11.2134 47.8498 11.592 47.7645 11.816C47.6365 12.136 47.5405 12.3707 47.4765 12.52C47.4338 12.6267 47.4018 12.7014 47.3805 12.744C47.3485 12.808 47.3165 12.8614 47.2845 12.904C47.2205 13.0107 47.1138 13.1014 46.9645 13.176C46.6551 13.3147 46.3725 13.272 46.1165 13.048C45.9671 12.9307 45.8765 12.776 45.8445 12.584C45.7485 12.0613 45.4018 10.92 44.8045 9.16002C44.2285 7.45335 43.9138 6.27468 43.8605 5.62402Z" fill="black"/>
<path d="M38.5496 5.94398C38.7096 6.09331 38.7896 6.27998 38.7896 6.50398C38.7896 6.72798 38.7096 6.91998 38.5496 7.07998C38.4002 7.22931 38.2136 7.30398 37.9896 7.30398C37.7656 7.30398 37.5789 7.22397 37.4296 7.06397C37.2269 6.87197 36.9069 6.67464 36.4696 6.47198C36.0429 6.25864 35.6162 6.12531 35.1896 6.07197C34.7842 6.00798 34.4696 6.03464 34.2456 6.15197C34.0642 6.24797 33.9469 6.44531 33.8936 6.74397C33.8616 6.97864 33.9896 7.19731 34.2776 7.39998C34.5122 7.55998 35.0882 7.83198 36.0056 8.21598C36.9549 8.62131 37.6216 9.01064 38.0056 9.38398C38.7202 10.0666 38.9389 10.904 38.6616 11.896C38.4376 12.696 37.8829 13.2453 36.9976 13.544C36.2829 13.7786 35.4989 13.8053 34.6456 13.624C34.2509 13.5386 33.8669 13.4053 33.4936 13.224C33.1309 13.0426 32.7896 12.8133 32.4696 12.536C32.1496 12.2586 31.8936 11.9173 31.7016 11.512C31.5096 11.1066 31.4136 10.6693 31.4136 10.2C31.4136 9.97598 31.4882 9.78931 31.6376 9.63998C31.7976 9.47998 31.9896 9.39998 32.2136 9.39998C32.4376 9.39998 32.6242 9.47998 32.7736 9.63998C32.9336 9.78931 33.0136 9.97598 33.0136 10.2C33.0136 10.6266 33.1949 11.0106 33.5576 11.352C33.9202 11.6933 34.3949 11.928 34.9816 12.056C35.5469 12.184 36.0482 12.1733 36.4856 12.024C36.8376 11.9066 37.0509 11.7146 37.1256 11.448C37.2322 11.0853 37.1576 10.7813 36.9016 10.536C36.6562 10.3013 36.1496 10.0186 35.3816 9.68798C34.3576 9.26131 33.6856 8.93064 33.3656 8.69597C32.5336 8.11997 32.1869 7.39464 32.3256 6.51997C32.4429 5.67731 32.8376 5.07998 33.5096 4.72798C34.0322 4.46131 34.6669 4.38131 35.4136 4.48798C36.0002 4.56264 36.5869 4.74397 37.1736 5.03198C37.7602 5.30931 38.2189 5.61331 38.5496 5.94398Z" fill="black"/>
<path d="M29.8006 5.44802C29.8326 5.23469 29.9339 5.06402 30.1046 4.93602C30.2859 4.79736 30.4832 4.74402 30.6966 4.77602C30.9206 4.79736 31.0966 4.89869 31.2246 5.08002C31.3632 5.25069 31.4219 5.44802 31.4006 5.67202C31.2832 6.49335 31.1339 7.66135 30.9526 9.17602C30.7712 10.6907 30.6486 11.7147 30.5846 12.248C30.5526 12.472 30.4459 12.6534 30.2646 12.792C30.0939 12.92 29.8966 12.9734 29.6726 12.952C29.4592 12.92 29.2832 12.8187 29.1446 12.648C29.0166 12.4667 28.9632 12.2694 28.9846 12.056C29.0592 11.512 29.1872 10.4827 29.3686 8.96802C29.5499 7.44269 29.6939 6.26936 29.8006 5.44802ZM31.3046 2.42402C31.4646 2.57336 31.5446 2.76002 31.5446 2.98402C31.5446 3.20802 31.4646 3.40002 31.3046 3.56002C31.1552 3.70935 30.9686 3.78402 30.7446 3.78402C30.5206 3.78402 30.3286 3.70935 30.1686 3.56002C30.0192 3.40002 29.9446 3.20802 29.9446 2.98402C29.9446 2.76002 30.0192 2.57336 30.1686 2.42402C30.3286 2.26402 30.5206 2.18402 30.7446 2.18402C30.9686 2.18402 31.1552 2.26402 31.3046 2.42402Z" fill="black"/>
<path d="M22.7914 1.62402C22.834 1.41068 22.946 1.24002 23.1274 1.11202C23.3087 0.984018 23.506 0.941351 23.7194 0.984018C23.9434 1.01602 24.1194 1.12268 24.2474 1.30402C24.3754 1.48535 24.418 1.68802 24.3754 1.91202C24.1727 3.06402 23.9327 4.71202 23.6554 6.85602C23.7834 6.66402 23.9114 6.49335 24.0394 6.34402C24.498 5.76802 24.9834 5.40002 25.4954 5.24002C26.0714 5.05868 26.61 5.13335 27.1114 5.46402C27.9007 5.96535 28.4127 6.93602 28.6474 8.37602C28.8714 9.75202 28.7807 11.1654 28.3754 12.616C28.3114 12.8294 28.1834 12.9894 27.9914 13.096C27.7994 13.2027 27.5967 13.224 27.3834 13.16C27.17 13.096 27.01 12.968 26.9034 12.776C26.7967 12.584 26.7754 12.3814 26.8394 12.168C27.1807 10.952 27.2554 9.77335 27.0634 8.63202C26.9887 8.14135 26.8714 7.74135 26.7114 7.43202C26.562 7.11202 26.4074 6.90402 26.2474 6.80802C26.162 6.75468 26.0714 6.73868 25.9754 6.76002C25.7727 6.83469 25.538 7.03202 25.2714 7.35202C24.5034 8.30135 23.7887 9.99735 23.1274 12.44C23.1167 12.504 23.1007 12.5627 23.0794 12.616C23.0474 12.68 23.0154 12.7387 22.9834 12.792C22.8234 13.016 22.6047 13.128 22.3274 13.128C21.9754 13.1387 21.7247 12.984 21.5754 12.664C21.5434 12.5894 21.522 12.5147 21.5114 12.44C21.5007 12.3867 21.4954 12.3227 21.4954 12.248C21.4954 12.0987 21.5114 11.8374 21.5434 11.464C21.5967 10.7814 21.698 9.81602 21.8474 8.56802C22.1887 5.57068 22.5034 3.25602 22.7914 1.62402Z" fill="black"/>
<path d="M12.5578 3.19201C12.3338 3.17068 12.1472 3.08001 11.9978 2.92001C11.8592 2.74934 11.7952 2.55734 11.8058 2.34401C11.8272 2.12001 11.9178 1.93868 12.0778 1.80001C12.2485 1.65068 12.4405 1.58134 12.6538 1.59201C13.4218 1.64534 14.6432 1.67734 16.3178 1.68801C17.9498 1.69868 19.2032 1.73601 20.0778 1.80001C20.3018 1.82134 20.4832 1.91734 20.6218 2.08801C20.7712 2.24801 20.8352 2.44001 20.8138 2.66401C20.7925 2.88801 20.6965 3.07468 20.5258 3.22401C20.3658 3.36268 20.1738 3.42134 19.9498 3.40001C19.2778 3.34668 18.4938 3.30934 17.5978 3.28801C17.5445 3.65068 17.4378 4.30134 17.2778 5.24001C17.1178 6.17868 17.0112 6.90934 16.9578 7.43201C16.9152 7.74134 16.8618 8.18934 16.7978 8.77601C16.7445 9.36268 16.7125 9.71468 16.7018 9.83201C16.6058 10.8133 16.4885 11.6347 16.3498 12.296C16.3072 12.5093 16.1898 12.68 15.9978 12.808C15.8165 12.9253 15.6192 12.9627 15.4058 12.92C15.1925 12.8773 15.0218 12.7653 14.8938 12.584C14.7765 12.392 14.7392 12.1893 14.7818 11.976C14.9098 11.368 15.0218 10.5947 15.1178 9.65601C15.1285 9.54934 15.1605 9.19734 15.2138 8.60001C15.2778 8.00268 15.3258 7.54934 15.3578 7.24001C15.4218 6.72801 15.5285 6.00801 15.6778 5.08001C15.8378 4.15201 15.9392 3.55468 15.9818 3.28801C14.4885 3.27734 13.3472 3.24534 12.5578 3.19201Z" fill="black"/>
<path d="M2.61719 7.46875L2.71094 5.75781L1.35156 6.65625L0.59375 5.48438L2.17188 4.64062L0.59375 3.79688L1.35156 2.61719L2.71094 3.52344L2.61719 1.80469H4.10938L4.01562 3.53125L5.38281 2.61719L6.14844 3.79688L4.5625 4.64062L6.14062 5.47656L5.38281 6.65625L4.01562 5.75L4.10938 7.46875H2.61719Z" fill="black"/>
</svg>
